<?xml version="1.0" encoding="iso-8859-1"?>
<svg version="1.1" id="Capa_1" xmlns="http://www.w3.org/2000/svg" x="0px" y="0px"
     viewBox="-10 -30 360 360" style="enable-background:new 0 0 317.317 317.317;"
     xml:space="preserve">
<g>
	<path style="fill:#9cbceb;" d="M290.305,173.736c-3.3,0-5.967,2.667-5.967,5.967c0,69.299-56.375,125.68-125.68,125.68
		c-69.299,0-125.68-56.375-125.68-125.68c0-67.282,53.195-122.225,119.713-125.376V90.14c0,1.963,0.961,3.795,2.578,4.911
		c1.008,0.698,2.196,1.056,3.389,1.056c0.71,0,1.426-0.125,2.112-0.382l111.413-42.084c2.321-0.877,3.855-3.103,3.855-5.585
		s-1.539-4.708-3.855-5.585L160.771,0.387c-1.838-0.692-3.896-0.448-5.501,0.674c-1.617,1.116-2.578,2.948-2.578,4.911v36.273
		C79.574,45.383,21.045,105.827,21.045,179.703c0,75.881,61.733,137.614,137.614,137.614s137.614-61.733,137.614-137.614
		C296.272,176.403,293.605,173.736,290.305,173.736z" stroke="#9cbceb" stroke-width="20"/>
</g>
</svg>
